<svg width="15" height="11" viewBox="0 0 15 11" fill="none" xmlns="http://www.w3.org/2000/svg">
<path d="M14.0625 0H0.9375C0.68886 0 0.450403 0.0965771 0.274587 0.268485C0.098772 0.440394 0 0.673552 0 0.916667V10.0833C0 10.3264 0.098772 10.5596 0.274587 10.7315C0.450403 10.9034 0.68886 11 0.9375 11H14.0625C14.3111 11 14.5496 10.9034 14.7254 10.7315C14.9012 10.5596 15 10.3264 15 10.0833V0.916667C15 0.673552 14.9012 0.440394 14.7254 0.268485C14.5496 0.0965771 14.3111 0 14.0625 0ZM13.3406 10.0833H1.71562L4.99687 6.765L4.32188 6.12792L0.9375 9.55167V1.61333L6.76406 7.28292C6.93971 7.45365 7.17733 7.54948 7.425 7.54948C7.67267 7.54948 7.91028 7.45365 8.08594 7.28292L14.0625 1.47125V9.49208L10.6125 6.11875L9.95156 6.765L13.3406 10.0833ZM1.55156 0.916667H13.3031L7.425 6.63208L1.55156 0.916667Z" fill="white"/>
</svg>
