<svg width="30" height="31" viewBox="0 0 30 31" fill="none" xmlns="http://www.w3.org/2000/svg">
<path d="M21.3957 25.9805H18.3392C17.9061 25.9805 17.5434 25.8338 17.251 25.5403C16.9586 25.2469 16.8119 24.8842 16.8109 24.4522C16.8099 24.0202 16.9566 23.6575 17.251 23.3641C17.5455 23.0707 17.9082 22.9239 18.3392 22.9239H21.3957V19.8674C21.3957 19.4344 21.5424 19.0717 21.8358 18.7793C22.1292 18.4869 22.492 18.3402 22.9239 18.3392C23.3559 18.3381 23.7191 18.4849 24.0136 18.7793C24.308 19.0737 24.4542 19.4364 24.4522 19.8674V22.9239H27.5087C27.9417 22.9239 28.305 23.0707 28.5984 23.3641C28.8918 23.6575 29.038 24.0202 29.037 24.4522C29.036 24.8842 28.8893 25.2474 28.5968 25.5419C28.3044 25.8363 27.9417 25.9825 27.5087 25.9805H24.4522V29.037C24.4522 29.47 24.3055 29.8332 24.0121 30.1266C23.7186 30.4201 23.3559 30.5663 22.9239 30.5653C22.492 30.5642 22.1292 30.4175 21.8358 30.1251C21.5424 29.8327 21.3957 29.47 21.3957 29.037V25.9805ZM3.05653 27.5087C2.21598 27.5087 1.49668 27.2097 0.898619 26.6116C0.300558 26.0136 0.00101884 25.2938 0 24.4522V6.11306C0 5.27251 0.29954 4.55321 0.898619 3.95515C1.4977 3.35709 2.217 3.05755 3.05653 3.05653H4.58479V1.52827C4.58479 1.09526 4.7315 0.732553 5.02493 0.440145C5.31835 0.147737 5.68106 0.00102411 6.11305 5.26987e-06C6.54504 -0.00101357 6.90826 0.1457 7.2027 0.440145C7.49715 0.73459 7.64335 1.0973 7.64131 1.52827V3.05653H16.8109V1.52827C16.8109 1.09526 16.9576 0.732553 17.251 0.440145C17.5445 0.147737 17.9072 0.00102411 18.3392 5.26987e-06C18.7711 -0.00101357 19.1344 0.1457 19.4288 0.440145C19.7232 0.73459 19.8695 1.0973 19.8674 1.52827V3.05653H21.3957C22.2362 3.05653 22.956 3.35607 23.5551 3.95515C24.1542 4.55423 24.4532 5.27353 24.4522 6.11306V13.7544C24.4522 14.1874 24.3055 14.5506 24.0121 14.844C23.7186 15.1374 23.3559 15.2837 22.9239 15.2826C22.492 15.2816 22.1292 15.1349 21.8358 14.8425C21.5424 14.5501 21.3957 14.1874 21.3957 13.7544V12.2261H3.05653V24.4522H12.2261C12.6591 24.4522 13.0223 24.5989 13.3158 24.8923C13.6092 25.1858 13.7554 25.5485 13.7544 25.9805C13.7533 26.4125 13.6066 26.7757 13.3142 27.0701C13.0218 27.3646 12.6591 27.5108 12.2261 27.5087H3.05653ZM3.05653 9.16958H21.3957V6.11306H3.05653V9.16958Z" fill="#5D589A"/>
</svg>
