<svg width="37" height="28" viewBox="0 0 37 28" fill="none" xmlns="http://www.w3.org/2000/svg">
<path d="M33.8125 0.700195C34.4713 0.700195 35.1036 0.959607 35.5703 1.42188L35.7354 1.60254C36.0984 2.04141 36.2998 2.59371 36.2998 3.16699V24.833C36.2998 25.4881 36.037 26.1158 35.5703 26.5781C35.1036 27.0404 34.4713 27.2998 33.8125 27.2998H3.1875C2.61108 27.2998 2.055 27.1014 1.6123 26.7422L1.42969 26.5781C0.962977 26.1158 0.700195 25.4881 0.700195 24.833V3.16699L0.711914 2.92285C0.768521 2.35744 1.02124 1.8265 1.42969 1.42188L1.6123 1.25781C2.055 0.898563 2.61108 0.700195 3.1875 0.700195H33.8125ZM20.0781 18.4277C19.6119 18.8868 18.9814 19.1445 18.3252 19.1445C17.7511 19.1445 17.1968 18.9474 16.7549 18.5908L16.5723 18.4277L3.4873 5.53027V22.8389L10.8701 15.2744L11.0771 15.0625L11.292 15.2676L12.8662 16.7734L13.0859 16.9824L12.874 17.1992L5.71582 24.5332H31.4004L24.0088 17.2031L23.7939 16.9902L24.0088 16.7773L25.5518 15.249L25.7627 15.04L25.9736 15.249L33.5127 22.7158V5.19434L20.0781 18.4277ZM18.3242 16.2539L31.3086 3.4668H5.35254L18.3242 16.2539Z" fill="#E07B3B" stroke="#E07B3B" stroke-width="0.6"/>
</svg>
