<svg width="39" height="39" viewBox="0 0 39 39" fill="none" xmlns="http://www.w3.org/2000/svg">
<path d="M16.6205 36.7609C18.5226 37.077 20.4637 37.0783 22.3662 36.7647M16.6205 36.7609C12.5349 36.0789 8.82174 33.9698 6.14496 30.8087C3.46818 27.6476 1.99944 23.6395 2 19.4974C2.00069 16.1589 2.95632 12.8902 4.75413 10.0771C6.55193 7.26403 9.11689 5.02388 12.1463 3.62101C15.1758 2.21814 18.5433 1.71109 21.8515 2.1597C25.1598 2.60831 28.2707 3.99385 30.8171 6.15283C33.3636 8.31182 35.2393 11.1541 36.223 14.3444C37.2068 17.5347 37.2574 20.9398 36.369 24.1579C35.4806 27.3761 33.6902 30.2729 31.2091 32.5067C28.7279 34.7404 25.6596 36.2179 22.3662 36.7647M16.6205 36.7609L16.6186 27.292H13.0297C12.7287 27.292 12.4399 27.1724 12.2271 26.9595C12.0142 26.7466 11.8946 26.4579 11.8946 26.1568V22.6795C11.8946 22.3785 12.0142 22.0898 12.2271 21.8769C12.4399 21.664 12.7287 21.5444 13.0297 21.5444H16.6186V15.619C16.6186 14.1137 17.2166 12.6701 18.281 11.6057C19.3454 10.5413 20.789 9.94332 22.2943 9.94332H25.7186C26.2204 9.94332 26.7016 10.1426 27.0564 10.4974C27.4112 10.8522 27.6105 11.3335 27.6105 11.8352V13.8028C27.6105 14.3045 27.4112 14.7858 27.0564 15.1405C26.7016 15.4953 26.2204 15.6947 25.7186 15.6947H24.2581C23.7563 15.6947 23.2751 15.894 22.9203 16.2488C22.5655 16.6036 22.3662 17.0848 22.3662 17.5866V21.5444H26.7119C26.8767 21.5444 27.0394 21.5802 27.189 21.6495C27.3385 21.7187 27.4711 21.8197 27.5777 21.9453C27.6843 22.071 27.7622 22.2183 27.8061 22.3771C27.85 22.5359 27.8588 22.7024 27.8319 22.8649L27.3589 25.7103C27.2855 26.1521 27.0577 26.5535 26.7161 26.8431C26.3746 27.1327 25.9413 27.2918 25.4935 27.292H22.3662V36.7647" stroke="white" stroke-width="3" stroke-linecap="round"/>
</svg>
