<svg width="37" height="37" viewBox="0 0 37 37" fill="none" xmlns="http://www.w3.org/2000/svg">
<path d="M15.7851 34.7756C17.5785 35.0736 19.4087 35.0748 21.2024 34.7791M15.7851 34.7756C11.9329 34.1325 8.43193 32.1438 5.90811 29.1632C3.38428 26.1826 1.99948 22.4033 2 18.4976C2.00065 15.3497 2.90167 12.2676 4.59675 9.6151C6.29182 6.9626 8.71021 4.85033 11.5666 3.52755C14.4229 2.20476 17.598 1.72666 20.7172 2.14966C23.8364 2.57266 26.7695 3.87911 29.1704 5.91484C31.5714 7.95057 33.3399 10.6306 34.2674 13.6388C35.1949 16.647 35.2427 19.8577 34.405 22.8921C33.5674 25.9265 31.8793 28.658 29.54 30.7642C27.2006 32.8705 24.3077 34.2636 21.2024 34.7791M15.7851 34.7756L15.7833 25.8472H12.3995C12.1156 25.8472 11.8434 25.7344 11.6427 25.5337C11.4419 25.333 11.3292 25.0607 11.3292 24.7769V21.4981C11.3292 21.2142 11.4419 20.942 11.6427 20.7412C11.8434 20.5405 12.1156 20.4277 12.3995 20.4277H15.7833V14.8406C15.7833 13.4213 16.3471 12.06 17.3507 11.0564C18.3542 10.0528 19.7154 9.48894 21.1346 9.48894H24.3633C24.8364 9.48894 25.2901 9.67688 25.6246 10.0114C25.9591 10.346 26.1471 10.7997 26.1471 11.2728V13.1281C26.1471 13.6012 25.9591 14.0549 25.6246 14.3895C25.2901 14.724 24.8364 14.912 24.3633 14.912H22.9862C22.5131 14.912 22.0594 15.0999 21.7249 15.4345C21.3904 15.769 21.2024 16.2227 21.2024 16.6958V20.4277H25.2998C25.4551 20.4277 25.6086 20.4615 25.7496 20.5268C25.8906 20.5921 26.0156 20.6873 26.1161 20.8058C26.2166 20.9242 26.2901 21.0632 26.3315 21.2129C26.3729 21.3627 26.3812 21.5196 26.3558 21.6729L25.9098 24.3559C25.8406 24.7724 25.6258 25.1509 25.3038 25.424C24.9817 25.697 24.5733 25.847 24.151 25.8472H21.2024V34.7791" stroke="#E07B3B" stroke-width="3" stroke-linecap="round"/>
</svg>
