<svg width="36" height="37" viewBox="0 0 36 37" fill="none" xmlns="http://www.w3.org/2000/svg">
<path d="M15.3674 34.7756C17.1064 35.0736 18.8811 35.0748 20.6205 34.7791M15.3674 34.7756C11.6319 34.1325 8.23702 32.1438 5.78968 29.1632C3.34234 26.1826 1.99949 22.4033 2 18.4976C2.00063 15.3497 2.87435 12.2676 4.51806 9.6151C6.16177 6.9626 8.50687 4.85033 11.2767 3.52755C14.0464 2.20476 17.1253 1.72666 20.15 2.14966C23.1746 2.57266 26.0189 3.87911 28.3471 5.91484C30.6753 7.95057 32.3902 10.6306 33.2896 13.6388C34.189 16.647 34.2353 19.8577 33.4231 22.8921C32.6108 25.9265 30.9739 28.658 28.7054 30.7642C26.437 32.8705 23.6317 34.2636 20.6205 34.7791M15.3674 34.7756L15.3656 25.8472H12.0843C11.8091 25.8472 11.5451 25.7344 11.3505 25.5337C11.1558 25.333 11.0465 25.0607 11.0465 24.7769V21.4981C11.0465 21.2142 11.1558 20.942 11.3505 20.7412C11.5451 20.5405 11.8091 20.4277 12.0843 20.4277H15.3656V14.8406C15.3656 13.4213 15.9123 12.06 16.8855 11.0564C17.8587 10.0528 19.1786 9.48894 20.5548 9.48894H23.6856C24.1444 9.48894 24.5843 9.67688 24.9087 10.0114C25.2331 10.346 25.4154 10.7997 25.4154 11.2728V13.1281C25.4154 13.6012 25.2331 14.0549 24.9087 14.3895C24.5843 14.724 24.1444 14.912 23.6856 14.912H22.3503C21.8915 14.912 21.4516 15.0999 21.1272 15.4345C20.8028 15.769 20.6205 16.2227 20.6205 16.6958V20.4277H24.5937C24.7444 20.4277 24.8932 20.4615 25.0299 20.5268C25.1666 20.5921 25.2879 20.6873 25.3853 20.8058C25.4828 20.9242 25.554 21.0632 25.5942 21.2129C25.6343 21.3627 25.6423 21.5196 25.6177 21.6729L25.1853 24.3559C25.1181 24.7724 24.9099 25.1509 24.5976 25.424C24.2853 25.697 23.8892 25.847 23.4798 25.8472H20.6205V34.7791" stroke="#5D589A" stroke-width="3" stroke-linecap="round"/>
</svg>
