<svg width="33" height="33" viewBox="0 0 33 33" fill="none" xmlns="http://www.w3.org/2000/svg">
<path d="M16.5016 11.55C15.1888 11.55 13.9298 12.0715 13.0015 12.9998C12.0732 13.9281 11.5517 15.1872 11.5517 16.5C11.5517 17.8128 12.0732 19.0719 13.0015 20.0002C13.9298 20.9285 15.1888 21.45 16.5016 21.45C17.8145 21.45 19.0735 20.9285 20.0018 20.0002C20.9301 19.0719 21.4517 17.8128 21.4517 16.5C21.4517 15.1872 20.9301 13.9281 20.0018 12.9998C19.0735 12.0715 17.8145 11.55 16.5016 11.55ZM16.5016 8.25C18.6897 8.25 20.7881 9.11919 22.3353 10.6664C23.8825 12.2135 24.7516 14.312 24.7516 16.5C24.7516 18.688 23.8825 20.7865 22.3353 22.3336C20.7881 23.8808 18.6897 24.75 16.5016 24.75C14.3136 24.75 12.2152 23.8808 10.668 22.3336C9.12084 20.7865 8.25165 18.688 8.25165 16.5C8.25165 14.312 9.12084 12.2135 10.668 10.6664C12.2152 9.11919 14.3136 8.25 16.5016 8.25ZM27.2266 7.8375C27.2266 8.38451 27.0094 8.90911 26.6226 9.29591C26.2358 9.6827 25.7112 9.9 25.1641 9.9C24.6171 9.9 24.0925 9.6827 23.7057 9.29591C23.3189 8.90911 23.1016 8.38451 23.1016 7.8375C23.1016 7.29049 23.3189 6.76589 23.7057 6.37909C24.0925 5.9923 24.6171 5.775 25.1641 5.775C25.7112 5.775 26.2358 5.9923 26.6226 6.37909C27.0094 6.76589 27.2266 7.29049 27.2266 7.8375ZM16.5016 3.3C12.4196 3.3 11.7529 3.31155 9.8538 3.3957C8.5602 3.45675 7.6923 3.63 6.8871 3.9435C6.21362 4.19161 5.60459 4.58805 5.1051 5.10345C4.5891 5.60277 4.19209 6.21182 3.9435 6.88545C3.63 7.69395 3.45675 8.5602 3.39735 9.85215C3.31155 11.6737 3.3 12.3106 3.3 16.5C3.3 20.5837 3.31155 21.2487 3.3957 23.1478C3.45675 24.4398 3.63 25.3093 3.94185 26.1129C4.22235 26.8307 4.55235 27.3471 5.10015 27.8949C5.6562 28.4493 6.17265 28.7809 6.88215 29.0548C7.69725 29.37 8.56515 29.5449 9.85215 29.6043C11.6737 29.6901 12.3106 29.7 16.5 29.7C20.5837 29.7 21.2487 29.6884 23.1478 29.6043C24.4381 29.5432 25.306 29.37 26.1129 29.0581C26.7864 28.81 27.3954 28.4136 27.8949 27.8982C28.451 27.3438 28.7826 26.8273 29.0565 26.1162C29.37 25.3044 29.5449 24.4365 29.6043 23.1462C29.6901 21.3263 29.7 20.6877 29.7 16.5C29.7 12.4179 29.6884 11.7513 29.6043 9.85215C29.5432 8.56185 29.3684 7.69065 29.0565 6.88545C28.8084 6.21197 28.412 5.60294 27.8965 5.10345C27.3972 4.58745 26.7882 4.19044 26.1145 3.94185C25.306 3.62835 24.4381 3.4551 23.1478 3.3957C21.3279 3.3099 20.691 3.3 16.5 3.3M16.5 0C20.983 0 21.5424 0.0164999 23.3029 0.0989999C25.0585 0.1815 26.2564 0.45705 27.3075 0.86625C28.3965 1.28535 29.3139 1.85295 30.2313 2.7687C31.0706 3.59326 31.7199 4.59108 32.1338 5.6925C32.5413 6.74355 32.8185 7.94145 32.901 9.6987C32.9785 11.4576 33 12.0169 33 16.5C33 20.983 32.9835 21.5424 32.901 23.3013C32.8185 25.0602 32.5413 26.2548 32.1338 27.3075C31.7199 28.4089 31.0706 29.4067 30.2313 30.2313C29.4067 31.0706 28.4089 31.7199 27.3075 32.1338C26.2564 32.5413 25.0585 32.8185 23.3029 32.901C21.5424 32.9785 20.983 33 16.5 33C12.0169 33 11.4576 32.9835 9.69705 32.901C7.94145 32.8185 6.7452 32.5413 5.6925 32.1338C4.59108 31.7199 3.59326 31.0706 2.7687 30.2313C1.92936 29.4067 1.2801 28.4089 0.86625 27.3075C0.45705 26.2564 0.1815 25.0585 0.0989999 23.3013C0.0197999 21.5424 0 20.983 0 16.5C0 12.0169 0.0164999 11.4576 0.0989999 9.6987C0.1815 7.9398 0.45705 6.7452 0.86625 5.6925C1.2801 4.59108 1.92936 3.59326 2.7687 2.7687C3.59326 1.92936 4.59108 1.2801 5.6925 0.86625C6.74355 0.45705 7.9398 0.1815 9.69705 0.0989999C11.4592 0.0214499 12.0186 0 16.5016 0" fill="#5D589A"/>
</svg>
