<svg width="35" height="35" viewBox="0 0 35 35" fill="none" xmlns="http://www.w3.org/2000/svg">
<path d="M17.5018 12.25C16.1094 12.25 14.774 12.8031 13.7894 13.7877C12.8049 14.7723 12.2518 16.1076 12.2518 17.5C12.2518 18.8924 12.8049 20.2277 13.7894 21.2123C14.774 22.1969 16.1094 22.75 17.5018 22.75C18.8941 22.75 20.2295 22.1969 21.2141 21.2123C22.1986 20.2277 22.7518 18.8924 22.7518 17.5C22.7518 16.1076 22.1986 14.7723 21.2141 13.7877C20.2295 12.8031 18.8941 12.25 17.5018 12.25ZM17.5018 8.75C19.8224 8.75 22.048 9.67187 23.6889 11.3128C25.3299 12.9538 26.2517 15.1794 26.2517 17.5C26.2517 19.8206 25.3299 22.0462 23.6889 23.6872C22.048 25.3281 19.8224 26.25 17.5018 26.25C15.1811 26.25 12.9555 25.3281 11.3146 23.6872C9.67362 22.0462 8.75175 19.8206 8.75175 17.5C8.75175 15.1794 9.67362 12.9538 11.3146 11.3128C12.9555 9.67187 15.1811 8.75 17.5018 8.75ZM28.8767 8.3125C28.8767 8.89266 28.6463 9.44906 28.236 9.8593C27.8258 10.2695 27.2694 10.5 26.6892 10.5C26.1091 10.5 25.5527 10.2695 25.1425 9.8593C24.7322 9.44906 24.5017 8.89266 24.5017 8.3125C24.5017 7.73234 24.7322 7.17594 25.1425 6.7657C25.5527 6.35547 26.1091 6.125 26.6892 6.125C27.2694 6.125 27.8258 6.35547 28.236 6.7657C28.6463 7.17594 28.8767 7.73234 28.8767 8.3125ZM17.5018 3.5C13.1723 3.5 12.4653 3.51225 10.451 3.6015C9.079 3.66625 8.1585 3.85 7.3045 4.1825C6.59021 4.44565 5.94426 4.86611 5.4145 5.41275C4.86723 5.94233 4.44616 6.58829 4.1825 7.30275C3.85 8.16025 3.66625 9.079 3.60325 10.4493C3.51225 12.3813 3.5 13.0567 3.5 17.5C3.5 21.8312 3.51225 22.5365 3.6015 24.5507C3.66625 25.921 3.85 26.8432 4.18075 27.6955C4.47825 28.4567 4.82825 29.0045 5.40925 29.5855C5.999 30.1735 6.54675 30.5252 7.29925 30.8157C8.16375 31.15 9.08425 31.3355 10.4493 31.3985C12.3813 31.4895 13.0567 31.5 17.5 31.5C21.8312 31.5 22.5365 31.4877 24.5507 31.3985C25.9192 31.3337 26.8397 31.15 27.6955 30.8193C28.4098 30.5561 29.0557 30.1356 29.5855 29.589C30.1753 29.001 30.527 28.4532 30.8175 27.699C31.15 26.838 31.3355 25.9175 31.3985 24.549C31.4895 22.6187 31.5 21.9415 31.5 17.5C31.5 13.1705 31.4877 12.4635 31.3985 10.4493C31.3337 9.08075 31.1483 8.15675 30.8175 7.30275C30.5544 6.58846 30.1339 5.94251 29.5872 5.41275C29.0577 4.86548 28.4117 4.44441 27.6973 4.18075C26.8398 3.84825 25.9192 3.6645 24.5507 3.6015C22.6205 3.5105 21.945 3.5 17.5 3.5M17.5 0C22.2548 0 22.848 0.0174999 24.7152 0.105C26.5772 0.1925 27.8477 0.48475 28.9625 0.91875C30.1175 1.36325 31.0905 1.96525 32.0635 2.9365C32.9537 3.81103 33.6423 4.86933 34.0812 6.0375C34.5135 7.15225 34.8075 8.42275 34.895 10.2865C34.9773 12.152 35 12.7452 35 17.5C35 22.2548 34.9825 22.848 34.895 24.7135C34.8075 26.579 34.5135 27.846 34.0812 28.9625C33.6423 30.1307 32.9537 31.189 32.0635 32.0635C31.189 32.9537 30.1307 33.6423 28.9625 34.0812C27.8477 34.5135 26.5772 34.8075 24.7152 34.895C22.848 34.9773 22.2548 35 17.5 35C12.7452 35 12.152 34.9825 10.2847 34.895C8.42275 34.8075 7.154 34.5135 6.0375 34.0812C4.86933 33.6423 3.81103 32.9537 2.9365 32.0635C2.04629 31.189 1.35768 30.1307 0.91875 28.9625C0.48475 27.8477 0.1925 26.5772 0.105 24.7135C0.0209999 22.848 0 22.2548 0 17.5C0 12.7452 0.0174999 12.152 0.105 10.2865C0.1925 8.421 0.48475 7.154 0.91875 6.0375C1.35768 4.86933 2.04629 3.81103 2.9365 2.9365C3.81103 2.04629 4.86933 1.35768 6.0375 0.91875C7.15225 0.48475 8.421 0.1925 10.2847 0.105C12.1537 0.0227499 12.747 0 17.5018 0" fill="white"/>
</svg>
