<svg width="33" height="37" viewBox="0 0 33 37" fill="none" xmlns="http://www.w3.org/2000/svg">
<path d="M13.5137 36.0225C13.1196 36.0225 12.7254 35.9521 12.3313 35.8113C11.9371 35.6705 11.5852 35.4594 11.2755 35.1779C9.44551 33.4886 7.82669 31.8417 6.41901 30.2369C5.01133 28.6322 3.8362 27.077 2.89362 25.5713C1.95104 24.0657 1.23313 22.6157 0.739875 21.2216C0.246625 19.8274 0 18.4969 0 17.23C0 14.3302 0.731992 11.726 2.19598 9.41737C3.65996 7.10878 5.72925 5.41956 8.40383 4.34973C9.13583 4.04004 9.94552 3.80073 10.8329 3.63181C11.7203 3.46289 12.5998 3.36435 13.4715 3.3362C13.9501 3.3362 14.3516 3.49105 14.6759 3.80073C15.0002 4.11042 15.1618 4.50457 15.1607 4.98318C15.1596 5.46179 14.9974 5.87734 14.6742 6.22982C14.351 6.5823 13.9501 6.75798 13.4715 6.75686C12.7958 6.75686 12.1342 6.82048 11.4866 6.94774C10.8391 7.07499 10.1916 7.26475 9.54405 7.517C7.5733 8.33345 6.05301 9.62852 4.98318 11.4022C3.91334 13.1759 3.37843 15.1185 3.37843 17.23C3.37843 19.2289 4.20895 21.5166 5.87001 24.0932C7.53107 26.6699 10.079 29.5342 13.5137 32.6863C15.2311 31.1097 16.7232 29.6108 17.9901 28.1896C19.257 26.7684 20.3128 25.4097 21.1574 24.1135C21.7205 23.2408 22.2131 22.3466 22.6354 21.431C23.0578 20.5155 23.3534 19.5656 23.5223 18.5813C23.6349 17.9338 23.881 17.4834 24.2605 17.23C24.64 16.9766 25.0415 16.8781 25.4649 16.9344C25.8883 16.9907 26.247 17.1596 26.5409 17.4411C26.8348 17.7227 26.9548 18.1027 26.9007 18.5813C26.6755 20.3269 26.1755 21.9671 25.4007 23.502C24.6259 25.037 23.7182 26.5077 22.6777 27.9142C21.4671 29.519 20.2216 30.9481 18.9411 32.2015C17.6607 33.4549 16.5976 34.447 15.7519 35.1779C15.4422 35.4594 15.0903 35.6705 14.6961 35.8113C14.302 35.9521 13.9079 36.0225 13.5137 36.0225ZM13.5137 20.2706C14.4428 20.2706 15.2384 19.94 15.9006 19.279C16.5627 18.6179 16.8933 17.8223 16.8921 16.8921C16.891 15.9619 16.5605 15.1669 15.9006 14.507C15.2406 13.847 14.445 13.516 13.5137 13.5137C12.5824 13.5115 11.7873 13.8425 11.1285 14.507C10.4697 15.1714 10.1387 15.9664 10.1353 16.8921C10.1319 17.8178 10.463 18.6134 11.1285 19.279C11.7941 19.9445 12.5891 20.2751 13.5137 20.2706ZM23.649 8.44607V11.8245C23.649 12.3031 23.8111 12.7046 24.1355 13.0289C24.4598 13.3532 24.8607 13.5148 25.3382 13.5137C25.8157 13.5126 26.2171 13.3504 26.5426 13.0272C26.8681 12.704 27.0297 12.3031 27.0274 11.8245V8.44607H30.4058C30.8844 8.44607 31.2859 8.2839 31.6102 7.95958C31.9346 7.63525 32.0962 7.23434 32.095 6.75686C32.0939 6.27937 31.9317 5.87847 31.6085 5.55414C31.2853 5.22981 30.8844 5.06764 30.4058 5.06764H27.0274V1.68922C27.0274 1.21061 26.8652 0.809702 26.5409 0.486499C26.2166 0.163296 25.8157 0.00113197 25.3382 5.82487e-06C24.8607 -0.00112032 24.4598 0.161044 24.1355 0.486499C23.8111 0.811954 23.649 1.21286 23.649 1.68922V5.06764H20.2706C19.7919 5.06764 19.391 5.22981 19.0678 5.55414C18.7446 5.87847 18.5825 6.27937 18.5813 6.75686C18.5802 7.23434 18.7424 7.63581 19.0678 7.96126C19.3933 8.28672 19.7942 8.44832 20.2706 8.44607H23.649Z" fill="#5D589A"/>
</svg>
