<svg width="44" height="44" viewBox="0 0 44 44" fill="none" xmlns="http://www.w3.org/2000/svg">
<path d="M38.4998 22.0002C38.0136 22.0002 37.5473 22.1934 37.2035 22.5372C36.8597 22.881 36.6665 23.3473 36.6665 23.8335V34.8335C36.6665 35.3198 36.4734 35.7861 36.1295 36.1299C35.7857 36.4737 35.3194 36.6669 34.8332 36.6669H9.1665C8.68027 36.6669 8.21396 36.4737 7.87014 36.1299C7.52632 35.7861 7.33317 35.3198 7.33317 34.8335V9.16688C7.33317 8.68065 7.52632 8.21433 7.87014 7.87052C8.21396 7.5267 8.68027 7.33355 9.1665 7.33355H20.1665C20.6527 7.33355 21.119 7.14039 21.4629 6.79658C21.8067 6.45276 21.9998 5.98644 21.9998 5.50021C21.9998 5.01398 21.8067 4.54767 21.4629 4.20385C21.119 3.86003 20.6527 3.66688 20.1665 3.66688H9.1665C7.70781 3.66688 6.30887 4.24634 5.27742 5.27779C4.24597 6.30924 3.6665 7.70819 3.6665 9.16688V34.8335C3.6665 36.2922 4.24597 37.6912 5.27742 38.7226C6.30887 39.7541 7.70781 40.3335 9.1665 40.3335H34.8332C36.2919 40.3335 37.6908 39.7541 38.7223 38.7226C39.7537 37.6912 40.3332 36.2922 40.3332 34.8335V23.8335C40.3332 23.3473 40.14 22.881 39.7962 22.5372C39.4524 22.1934 38.9861 22.0002 38.4998 22.0002ZM10.9998 23.3935V31.1669C10.9998 31.6531 11.193 32.1194 11.5368 32.4632C11.8806 32.8071 12.3469 33.0002 12.8332 33.0002H20.6065C20.8478 33.0016 21.087 32.9554 21.3103 32.8641C21.5337 32.7729 21.7369 32.6385 21.9082 32.4685L34.5948 19.7635L39.8015 14.6669C39.9733 14.4964 40.1097 14.2937 40.2028 14.0703C40.2959 13.8469 40.3438 13.6072 40.3438 13.3652C40.3438 13.1232 40.2959 12.8836 40.2028 12.6602C40.1097 12.4367 39.9733 12.234 39.8015 12.0635L32.0282 4.19855C31.8577 4.02671 31.655 3.89032 31.4316 3.79725C31.2082 3.70417 30.9685 3.65625 30.7265 3.65625C30.4845 3.65625 30.2449 3.70417 30.0214 3.79725C29.798 3.89032 29.5953 4.02671 29.4248 4.19855L24.2548 9.38688L11.5315 22.0919C11.3616 22.2632 11.2272 22.4663 11.1359 22.6897C11.0447 22.9131 10.9984 23.1523 10.9998 23.3935ZM30.7265 8.08521L35.9148 13.2735L33.3115 15.8769L28.1232 10.6885L30.7265 8.08521ZM14.6665 24.1452L25.5382 13.2735L30.7265 18.4619L19.8548 29.3335H14.6665V24.1452Z" fill="#E07B3B"/>
</svg>
