<svg width="28" height="28" viewBox="0 0 28 28" fill="none" xmlns="http://www.w3.org/2000/svg">
<path d="M18.4502 0.700195C23.3331 0.700225 27.2996 4.64336 27.2998 9.5166C27.2998 14.3924 23.3331 18.335 18.4512 18.335H18.4482C17.8104 18.3285 17.1747 18.2607 16.5498 18.1328H16.5488C16.1567 18.0516 15.7074 17.9311 15.2734 17.7461L15.0361 17.9824C15.103 18.0761 15.1642 18.1735 15.2197 18.2744H15.2207C15.4368 18.6187 15.5964 18.9958 15.6934 19.3906H15.6924C15.793 19.7927 15.8158 20.2097 15.7588 20.6191L15.7295 20.7949C15.6383 21.2602 15.4454 21.6997 15.165 22.082L15.1611 22.0879L15.1543 22.0967L15.1504 22.1025C14.7779 22.596 14.097 23.1906 13.1729 23.4229L12.9844 23.4648C12.6049 23.5362 12.2123 23.5412 11.8154 23.4707C11.7592 23.9894 11.5684 24.4858 11.2559 24.9092L11.2568 24.9102L11.251 24.9189L11.2432 24.9297L11.2344 24.9395L11.2275 24.9482L11.2266 24.9473C10.7147 25.6008 9.98647 26.0504 9.17188 26.2119H9.16992C8.50433 26.3403 7.81831 26.2457 7.21289 25.9502L6.68555 26.4785L6.68457 26.4775C6.42314 26.748 6.1092 26.9614 5.76172 27.1025L5.60938 27.1582C5.25087 27.2792 4.87161 27.3233 4.49609 27.2881L4.33496 27.2686C3.74793 27.1762 3.19683 26.9254 2.74121 26.5439L2.7334 26.5381L2.72656 26.5312L2.67578 26.4824L2.6709 26.4785L1.60449 25.416C0.828064 24.6433 0.601256 23.7346 0.736328 22.9111L0.737305 22.9072L0.788086 22.6719C0.926756 22.1292 1.20692 21.631 1.60254 21.2305L1.60449 21.2295L10.2363 12.6328C9.8237 11.6465 9.60604 10.5891 9.60156 9.51855V9.5166L9.61328 9.0625C9.85078 4.39961 13.7222 0.700195 18.4502 0.700195ZM18.4512 3.11426C14.8925 3.11435 12.0158 5.98569 12.0156 9.5166C12.0196 10.2962 12.1823 11.0655 12.4922 11.7783L12.6338 12.0811L12.6357 12.084L12.7217 12.2412L12.7725 12.3301C12.8655 12.5106 12.911 12.712 12.9053 12.915L12.8984 13.0166C12.8715 13.2535 12.775 13.4763 12.6221 13.6572L12.5527 13.7324L3.31348 22.9336L3.24414 23.0166C3.1827 23.1021 3.13958 23.1999 3.11816 23.3037C3.11102 23.3494 3.1111 23.3931 3.12793 23.4453C3.14135 23.4869 3.16923 23.5466 3.23242 23.623L3.30859 23.7051V23.7061L4.3252 24.7188C4.43577 24.8003 4.56306 24.8557 4.69824 24.8809C4.75137 24.888 4.78885 24.8861 4.82227 24.876C4.85705 24.8654 4.90973 24.8398 4.98145 24.7686L6.22559 23.5293L6.31348 23.4492C6.528 23.2739 6.7977 23.1768 7.07715 23.1768C7.3966 23.1768 7.70345 23.3038 7.92969 23.5293L8.05664 23.6445C8.17923 23.7434 8.28793 23.7961 8.37988 23.8242C8.50178 23.8615 8.61277 23.8597 8.71582 23.8398H8.7168L8.81055 23.8164C9.02611 23.7502 9.2135 23.6056 9.30566 23.4873C9.45063 23.2755 9.44494 23.093 9.37598 22.8887L9.375 22.8877C9.33664 22.7726 9.28256 22.669 9.23535 22.5947L9.17969 22.5127H9.17871C8.98471 22.2848 8.88136 21.9931 8.89062 21.6934L8.90137 21.5713C8.91865 21.4488 8.95495 21.3245 9.00195 21.2109C9.06442 21.0601 9.15607 20.9047 9.27441 20.7871L9.28516 20.7764L9.29688 20.7666L9.62402 20.501C9.84793 20.2888 10.1449 20.1699 10.4541 20.1699C10.7733 20.17 11.0795 20.2962 11.3057 20.5215L11.5283 20.7246C12.0238 21.1346 12.3603 21.126 12.5352 21.0928L12.6396 21.0654C12.8784 20.9888 13.0937 20.8148 13.2139 20.6592C13.2873 20.5605 13.3374 20.4461 13.3604 20.3252L13.3721 20.2344C13.3789 20.143 13.3707 20.0508 13.3467 19.9619L13.3438 19.9502C13.3169 19.8342 13.2742 19.734 13.2373 19.6631V19.6641C13.2185 19.6285 13.2063 19.606 13.1992 19.5938L13.1631 19.543L13.1504 19.5254L13.1396 19.5049L13.1074 19.4414L13.1064 19.4395C13.0907 19.4081 13.0673 19.3719 12.9941 19.291L12.9697 19.2646L12.9688 19.2637C12.9016 19.192 12.7034 18.9846 12.5762 18.7578L12.5752 18.7559C12.3565 18.3611 12.2936 17.8812 12.4854 17.3896L12.4863 17.3887L12.5469 17.25C12.7013 16.9341 12.9368 16.6686 13.1562 16.4502L14.2227 15.3887L14.3047 15.3135C14.5056 15.147 14.7559 15.0494 15.0186 15.0371C15.281 15.0249 15.5395 15.0983 15.7549 15.2451L15.8447 15.3125V15.3135L15.9277 15.374C16.1443 15.5166 16.5243 15.6628 17.0391 15.7705H17.0381C17.5907 15.8833 18.1397 15.9209 18.4502 15.9209C22.0102 15.9209 24.8857 13.0502 24.8857 9.5166C24.8855 5.9856 22.0087 3.11426 18.4512 3.11426Z" fill="#E07B3B" stroke="#E07B3B" stroke-width="0.6"/>
</svg>
