<svg width="33" height="33" viewBox="0 0 33 33" fill="none" xmlns="http://www.w3.org/2000/svg">
<path d="M10.2267 24.0681C13.1133 24.0681 15.4533 21.728 15.4533 18.8414C15.4533 15.9548 13.1133 13.6147 10.2267 13.6147C7.34006 13.6147 5 15.9548 5 18.8414C5 21.728 7.34006 24.0681 10.2267 24.0681Z" stroke="#5D589A" stroke-width="3" stroke-linecap="round" stroke-linejoin="round"/>
<path d="M24.1642 12.4533C27.0508 12.4533 29.3908 10.1133 29.3908 7.22666C29.3908 4.34006 27.0508 2 24.1642 2C21.2776 2 18.9375 4.34006 18.9375 7.22666C18.9375 10.1133 21.2776 12.4533 24.1642 12.4533Z" stroke="#5D589A" stroke-width="3" stroke-linecap="round" stroke-linejoin="round"/>
<path d="M15.9378 19.422C15.9378 17.099 17.68 12.4531 23.4874 12.4531C29.2948 12.4531 31.037 17.099 31.037 19.422M2 31.0368C2 28.7138 3.74222 24.0679 9.54962 24.0679C15.357 24.0679 17.0992 28.7138 17.0992 31.0368" stroke="#5D589A" stroke-width="3" stroke-linecap="round" stroke-linejoin="round"/>
</svg>
