<svg width="17" height="17" viewBox="0 0 17 17" fill="none" xmlns="http://www.w3.org/2000/svg">
<path d="M1 2.56641C1.31102 3.39906 1.90122 4.02845 2.5049 4.47539" stroke="white" stroke-linecap="round" stroke-linejoin="round"/>
<path d="M7.55592 4.82534H5.69714M11.7143 7.1433V8.30289M12.7012 2.38248L12.4441 3.92534C13.3869 4.76534 14.0616 5.85636 14.3347 7.0784H14.7755C15.1003 7.0784 15.4117 7.20741 15.6414 7.43704C15.871 7.66668 16 7.97813 16 8.30289V11.2196C16.0001 11.4472 15.9368 11.6703 15.8172 11.8638C15.6976 12.0574 15.5264 12.2138 15.3229 12.3155L13.3906 13.2804C13.495 13.8224 13.3862 14.3838 13.0869 14.8476C12.7876 15.3113 12.3209 15.6417 11.784 15.7699C11.2472 15.8981 10.6816 15.8141 10.205 15.5356C9.72853 15.2571 9.37787 14.8054 9.22612 14.2747C8.05407 14.5156 6.84112 14.4689 5.69102 14.1388L5.68367 14.1731C5.55621 14.727 5.21394 15.2075 4.73216 15.509C4.25038 15.8105 3.66856 15.9083 3.11469 15.7808C2.56082 15.6534 2.08028 15.3111 1.77876 14.8293C1.47725 14.3476 1.37947 13.7657 1.50694 13.2119L1.82653 11.8196C1.85788 11.6907 1.89965 11.5646 1.95143 11.4425C1.33248 10.5123 1.00154 9.42021 1 8.30289C1 4.9233 4.01469 2.18044 7.73469 2.18044C8.15755 2.18044 8.56939 2.21473 8.9702 2.2833C9.63388 1.41391 10.6184 1.11146 11.4951 1.00738C12.2469 0.919216 12.8261 1.63554 12.7012 2.38248Z" stroke="white" stroke-linecap="round" stroke-linejoin="round"/>
</svg>
