<svg width="15" height="17" viewBox="0 0 15 17" fill="none" xmlns="http://www.w3.org/2000/svg">
<path d="M1 16V15.0625C1 13.322 1.68482 11.6528 2.90381 10.4221C4.12279 9.1914 5.77609 8.5 7.5 8.5M7.5 8.5C9.22391 8.5 10.8772 9.1914 12.0962 10.4221C13.3152 11.6528 14 13.322 14 15.0625V16M7.5 8.5C8.48509 8.5 9.42983 8.10491 10.1264 7.40165C10.823 6.69839 11.2143 5.74456 11.2143 4.75C11.2143 3.75544 10.823 2.80161 10.1264 2.09835C9.42983 1.39509 8.48509 1 7.5 1C6.51491 1 5.57017 1.39509 4.8736 2.09835C4.17704 2.80161 3.78571 3.75544 3.78571 4.75C3.78571 5.74456 4.17704 6.69839 4.8736 7.40165C5.57017 8.10491 6.51491 8.5 7.5 8.5Z" stroke="#E07B3B" stroke-linecap="round" stroke-linejoin="round"/>
</svg>
