<svg width="172" height="152" viewBox="0 0 172 152" fill="none" xmlns="http://www.w3.org/2000/svg">
<rect x="8.89209" y="27.7881" width="152.279" height="83.3643" rx="30" fill="#B9B9B9"/>
<path d="M33.75 58.5195L26.6768 51.4463L50.334 27.7881H64.4824L33.75 58.5195Z" fill="#EDEDED"/>
<path d="M47.9297 58.5195L45.5723 56.1621L73.9453 27.7881H78.6621L47.9297 58.5195Z" fill="#EDEDED"/>
<path d="M11.2159 71.4042C13.5109 55.4245 25.1827 42.2415 40.9013 38.5611C77.6079 29.9665 92.1874 30.285 128.422 38.7544C143.942 42.382 155.624 55.1933 158.217 70.919L163.506 102.992C167.523 127.352 148.728 149.5 124.039 149.5H46.1551C21.8011 149.5 3.09923 127.92 6.56137 103.813L11.2159 71.4042Z" fill="#84282D"/>
<circle cx="77.2514" cy="7.78067" r="7.78067" fill="#B9B9B9"/>
<circle cx="7.78067" cy="7.78067" r="7.78067" transform="matrix(-1 0 0 1 100.593 0)" fill="#B9B9B9"/>
<path d="M54.6075 21.457C52.9526 21.3782 51.547 22.656 51.4682 24.3109C51.3894 25.9659 52.6672 27.3714 54.3221 27.4502L54.6075 21.457ZM77.2511 7.78076H74.2511C74.2511 11.8863 73.9905 14.7304 73.4283 16.7344C72.8945 18.6367 72.1476 19.5857 71.2205 20.191C70.173 20.8749 68.5143 21.3706 65.6857 21.5761C62.8784 21.7801 59.2902 21.68 54.6075 21.457L54.4648 24.4536L54.3221 27.4502C58.9763 27.6719 62.9048 27.794 66.1205 27.5604C69.315 27.3282 72.1858 26.7263 74.5006 25.215C76.9359 23.625 78.3842 21.2811 79.2052 18.3552C79.9976 15.5311 80.2511 12.0116 80.2511 7.78076H77.2511Z" fill="#B9B9B9"/>
<path d="M115.456 21.457C117.111 21.3782 118.516 22.656 118.595 24.3109C118.674 25.9659 117.396 27.3714 115.741 27.4502L115.456 21.457ZM92.8124 7.78076H95.8124C95.8124 11.8863 96.0729 14.7304 96.6352 16.7344C97.169 18.6367 97.9159 19.5857 98.843 20.191C99.8905 20.8749 101.549 21.3706 104.378 21.5761C107.185 21.7801 110.773 21.68 115.456 21.457L115.599 24.4536L115.741 27.4502C111.087 27.6719 107.159 27.794 103.943 27.5604C100.749 27.3282 97.8777 26.7263 95.5628 25.215C93.1275 23.625 91.6792 21.2811 90.8583 18.3552C90.0659 15.5311 89.8124 12.0116 89.8124 7.78076H92.8124Z" fill="#B9B9B9"/>
<path d="M53.8449 72.2658C61.8204 63.925 74.6237 62.4912 84.2465 68.8613C96.6409 77.0662 98.5917 94.4868 88.3191 105.23L83.5948 110.171C75.6193 118.511 62.8161 119.945 53.1932 113.575C40.7988 105.37 38.848 87.9497 49.1206 77.2066L53.8449 72.2658Z" fill="#D3814E"/>
<path d="M53.4803 71.0261C61.2119 62.9403 73.6293 61.564 82.9439 67.7606C94.9022 75.7159 96.7674 92.5449 86.8413 102.926L82.7383 107.217C75.0067 115.302 62.5893 116.679 53.2747 110.482C41.3164 102.527 39.4512 85.6978 49.3773 75.317L53.4803 71.0261Z" fill="#EBDE7B"/>
<mask id="mask0_2822_1780" style="mask-type:alpha" maskUnits="userSpaceOnUse" x="42" y="63" width="52" height="52">
<path d="M53.4803 71.0265C61.2119 62.9407 73.6293 61.5645 82.9439 67.761C94.9022 75.7164 96.7674 92.5454 86.8413 102.926L82.7383 107.217C75.0067 115.303 62.5893 116.679 53.2747 110.483C41.3164 102.527 39.4512 85.6983 49.3773 75.3175L53.4803 71.0265Z" fill="#EBDE7B"/>
</mask>
<g mask="url(#mask0_2822_1780)">
<path d="M40.2234 94.0837L91.5203 75.498L95.1381 91.1597L41.2484 98.5212L40.2234 94.0837Z" fill="white" fill-opacity="0.4"/>
<path d="M37.1782 101.539L91.3087 98.6288L91.3792 104.023L37.1982 103.068L37.1782 101.539Z" fill="white" fill-opacity="0.4"/>
</g>
<path d="M80.8873 70.7753C91.0794 77.556 92.6687 91.8995 84.2087 100.747L80.4448 104.684C73.8549 111.576 63.2714 112.749 55.3322 107.467C45.1397 100.687 43.5497 86.3427 52.0101 77.4947L55.7741 73.5583C62.364 66.6667 72.9483 65.4938 80.8873 70.7753Z" stroke="#D3814E" stroke-width="3"/>
<path d="M80.405 58.4953C88.3805 50.1545 101.184 48.7207 110.807 55.0908C123.201 63.2957 125.152 80.7162 114.879 91.4594L110.155 96.4002C102.179 104.741 89.3761 106.175 79.7533 99.8046C67.3589 91.5998 65.4081 74.1792 75.6806 63.4361L80.405 58.4953Z" fill="#D3814E"/>
<path d="M80.0408 57.256C87.7724 49.1702 100.19 47.794 109.504 53.9905C121.463 61.9459 123.328 78.7749 113.402 89.1557L109.299 93.4466C101.567 101.532 89.1498 102.909 79.8353 96.7121C67.8769 88.7567 66.0118 71.9278 75.9379 61.5469L80.0408 57.256Z" fill="#EBDE7B"/>
<mask id="mask1_2822_1780" style="mask-type:alpha" maskUnits="userSpaceOnUse" x="69" y="50" width="51" height="51">
<path d="M80.0408 57.256C87.7724 49.1702 100.19 47.794 109.504 53.9905C121.463 61.9459 123.328 78.7749 113.402 89.1557L109.299 93.4466C101.567 101.532 89.1498 102.909 79.8353 96.7121C67.8769 88.7567 66.0118 71.9278 75.9379 61.5469L80.0408 57.256Z" fill="#EBDE7B"/>
</mask>
<g mask="url(#mask1_2822_1780)">
<path d="M66.7834 80.3132L118.08 61.7274L121.698 77.3892L67.8084 84.7507L66.7834 80.3132Z" fill="white" fill-opacity="0.4"/>
<path d="M63.7383 87.7687L117.869 84.8583L117.939 90.2528L63.7582 89.2971L63.7383 87.7687Z" fill="white" fill-opacity="0.4"/>
</g>
<path d="M107.448 57.0053C117.64 63.786 119.229 78.1295 110.769 86.9774L107.005 90.9138C100.415 97.8056 89.8319 98.9788 81.8928 93.6974C71.7002 86.9167 70.1103 72.5726 78.5707 63.7246L82.3346 59.7883C88.9246 52.8967 99.5088 51.7238 107.448 57.0053Z" stroke="#D3814E" stroke-width="3"/>
<path d="M81.0383 86.6638C89.0138 78.323 101.817 76.8892 111.44 83.2593C123.834 91.4641 125.785 108.885 115.513 119.628L110.788 124.569C102.813 132.909 90.0094 134.343 80.3866 127.973C67.9922 119.768 66.0414 102.348 76.3139 91.6045L81.0383 86.6638Z" fill="#D3814E"/>
<path d="M80.6741 85.4245C88.4057 77.3387 100.823 75.9624 110.138 82.159C122.096 90.1143 123.961 106.943 114.035 117.324L109.932 121.615C102.201 129.701 89.7831 131.077 80.4686 124.881C68.5102 116.925 66.6451 100.096 76.5712 89.7154L80.6741 85.4245Z" fill="#EBDE7B"/>
<mask id="mask2_2822_1780" style="mask-type:alpha" maskUnits="userSpaceOnUse" x="70" y="78" width="51" height="51">
<path d="M80.6736 85.4245C88.4052 77.3387 100.823 75.9624 110.137 82.159C122.096 90.1143 123.961 106.943 114.035 117.324L109.932 121.615C102.2 129.701 89.7826 131.077 80.4681 124.881C68.5098 116.925 66.6446 100.096 76.5707 89.7154L80.6736 85.4245Z" fill="#EBDE7B"/>
</mask>
<g mask="url(#mask2_2822_1780)">
<path d="M67.4167 108.482L118.714 89.8964L122.331 105.558L68.4417 112.92L67.4167 108.482Z" fill="white" fill-opacity="0.4"/>
<path d="M64.3716 115.938L118.502 113.027L118.573 118.422L64.3915 117.466L64.3716 115.938Z" fill="white" fill-opacity="0.4"/>
</g>
<path d="M108.081 85.1743C118.273 91.955 119.863 106.298 111.403 115.146L107.639 119.083C101.049 125.975 90.4652 127.148 82.5261 121.866C72.3335 115.086 70.7436 100.742 79.204 91.8936L82.9679 87.9572C89.5579 81.0656 100.142 79.8928 108.081 85.1743Z" stroke="#D3814E" stroke-width="3"/>
</svg>
