<svg width="15" height="14" viewBox="0 0 15 14" fill="none" xmlns="http://www.w3.org/2000/svg">
<path d="M0.750002 14C0.537502 14 0.359503 13.9253 0.216003 13.776C0.0725026 13.6267 0.000502586 13.4421 2.5862e-06 13.2222C-0.000497414 13.0024 0.0715026 12.8178 0.216003 12.6684C0.360503 12.5191 0.538502 12.4444 0.750002 12.4444H14.25C14.4625 12.4444 14.6407 12.5191 14.7847 12.6684C14.9287 12.8178 15.0005 13.0024 15 13.2222C14.9995 13.4421 14.9275 13.6269 14.784 13.7768C14.6405 13.9266 14.4625 14.001 14.25 14H0.750002ZM1.875 11.6667C1.5625 11.6667 1.297 11.5534 1.0785 11.3268C0.860002 11.1002 0.750502 10.8246 0.750002 10.5V7.38888C0.750002 7.06481 0.859502 6.78948 1.0785 6.56288C1.2975 6.33629 1.563 6.22274 1.875 6.22222C2.187 6.2217 2.45275 6.33526 2.67225 6.56288C2.89175 6.79051 3.001 7.06585 3 7.38888V10.5C3 10.8241 2.89075 11.0997 2.67225 11.3268C2.45375 11.5539 2.188 11.6672 1.875 11.6667ZM5.625 11.6667C5.3125 11.6667 5.047 11.5534 4.8285 11.3268C4.61 11.1002 4.5005 10.8246 4.5 10.5V3.5C4.5 3.17593 4.6095 2.90059 4.8285 2.674C5.0475 2.44741 5.313 2.33385 5.625 2.33333C5.937 2.33281 6.20275 2.44637 6.42225 2.674C6.64175 2.90163 6.751 3.17696 6.75 3.5V10.5C6.75 10.8241 6.64075 11.0997 6.42225 11.3268C6.20375 11.5539 5.938 11.6672 5.625 11.6667ZM9.375 11.6667C9.0625 11.6667 8.797 11.5534 8.5785 11.3268C8.36 11.1002 8.2505 10.8246 8.25 10.5V5.83333C8.25 5.50926 8.3595 5.23392 8.5785 5.00733C8.7975 4.78074 9.063 4.66718 9.375 4.66666C9.687 4.66615 9.95275 4.7797 10.1722 5.00733C10.3917 5.23496 10.501 5.51029 10.5 5.83333V10.5C10.5 10.8241 10.3907 11.0997 10.1722 11.3268C9.95375 11.5539 9.688 11.6672 9.375 11.6667ZM13.125 11.6667C12.8125 11.6667 12.547 11.5534 12.3285 11.3268C12.11 11.1002 12.0005 10.8246 12 10.5V1.16667C12 0.842594 12.1095 0.567261 12.3285 0.340668C12.5475 0.114076 12.813 0.000520286 13.125 1.76768e-06C13.437 -0.00051675 13.7027 0.113039 13.9222 0.340668C14.1417 0.568298 14.251 0.843631 14.25 1.16667V10.5C14.25 10.8241 14.1407 11.0997 13.9222 11.3268C13.7037 11.5539 13.438 11.6672 13.125 11.6667Z" fill="white"/>
</svg>
