<svg width="70" height="70" viewBox="0 0 70 70" fill="none" xmlns="http://www.w3.org/2000/svg">
<path d="M35.001 1.5C35.9387 1.50021 36.9329 2.01546 38.3721 3.89453C39.812 5.77471 41.4139 8.63873 43.6553 12.6582L44.8027 14.7168C45.9973 16.8606 46.786 18.3373 48.0742 19.3174C49.3736 20.3057 50.987 20.6375 53.3066 21.1611V21.1621L55.5322 21.666C59.8878 22.6523 62.9793 23.3559 65.126 24.2021C67.2427 25.0367 68.0549 25.8623 68.3672 26.8633V26.8643C68.6824 27.8799 68.4802 29.0769 67.2236 31.0732C65.9569 33.0857 63.8453 35.5623 60.8789 39.0312L59.3613 40.8047L59.3604 40.8057C57.7772 42.6584 56.6789 43.898 56.1914 45.4648L56.1904 45.4668C55.827 46.6392 55.843 47.8667 55.9746 49.4512L56.1348 51.166L56.3652 53.5361C56.8125 58.1633 57.1289 61.4701 57.0215 63.8818C56.9141 66.2913 56.3957 67.3635 55.6006 67.9668C54.8292 68.5516 53.7454 68.7359 51.5518 68.1074C49.3388 67.4734 46.441 66.1445 42.3652 64.2676L42.3643 64.2666L40.2744 63.3076H40.2734C38.7155 62.5881 37.5159 62.0296 36.4385 61.7686L36.2646 61.7266H5.64648C3.3573 61.7265 1.50098 59.8704 1.50098 57.5811V28.2266C1.50098 28.1687 1.50218 28.1081 1.50488 28.0449L1.50879 27.9717L1.50488 27.8994C1.48579 27.5477 1.52763 27.2087 1.63477 26.8633C1.7831 26.3855 2.03043 25.9855 2.41504 25.6162L2.46484 25.5684L2.51074 25.5166C3.13048 24.8003 3.98705 24.3007 4.95508 24.1387L5.0957 24.1152L5.22852 24.0664C7.36798 23.2753 10.3608 22.5954 14.4727 21.666H14.4736L16.6992 21.1621C19.0177 20.638 20.6233 20.3049 21.9248 19.3184C23.2185 18.3374 24.0061 16.8579 25.1992 14.7168L26.3467 12.6582C28.5882 8.63843 30.1898 5.7737 31.6299 3.89355C33.0688 2.01502 34.0633 1.50017 35.001 1.5Z" fill="#AFB06A" stroke="white" stroke-width="3"/>
</svg>
