<svg width="29" height="28" viewBox="0 0 29 28" fill="none" xmlns="http://www.w3.org/2000/svg">
<path d="M22.6693 15.859H1.86196C1.33441 15.859 0.892504 15.6818 0.53625 15.3272C0.179996 14.9727 0.00124772 14.5345 6.42053e-06 14.0125C-0.00123488 13.4905 0.177513 13.0523 0.53625 12.6978C0.894987 12.3432 1.33689 12.166 1.86196 12.166H22.6693L13.5457 3.11794C13.1733 2.74864 12.9946 2.31778 13.0095 1.82537C13.0244 1.33296 13.2187 0.902102 13.5923 0.532795C13.9647 0.194264 14.3991 0.0169971 14.8957 0.000993839C15.3922 -0.0150095 15.8266 0.162257 16.199 0.532795L28.4879 12.7199C28.6741 12.9046 28.8063 13.1046 28.8845 13.32C28.9627 13.5355 29.0012 13.7663 29 14.0125C28.9987 14.2587 28.9602 14.4895 28.8845 14.7049C28.8088 14.9204 28.6766 15.1204 28.4879 15.3051L16.199 27.4922C15.8577 27.8307 15.4313 28 14.9199 28C14.4084 28 13.9659 27.8307 13.5923 27.4922C13.2199 27.1229 13.0337 26.6846 13.0337 26.1775C13.0337 25.6703 13.2199 25.2314 13.5923 24.8609L22.6693 15.859Z" fill="white"/>
</svg>
