<svg width="14" height="15" viewBox="0 0 14 15" fill="none" xmlns="http://www.w3.org/2000/svg">
<path fill-rule="evenodd" clip-rule="evenodd" d="M3.74082 0C3.18451 0 2.80321 1.03962e-08 2.4629 0.0927907C2.11068 0.189894 1.78274 0.360329 1.50036 0.593028C1.21798 0.825726 0.987476 1.11548 0.823822 1.44349C0.666165 1.75884 0.591851 2.13488 0.48281 2.68326L0.0522059 4.84465C-0.0240549 5.22355 -0.0166871 5.61463 0.0737902 5.99036C0.164268 6.36608 0.335654 6.71731 0.575877 7.0193V8.93442C0.575877 10.2167 0.575877 11.2326 0.682139 12.0272C0.791874 12.8449 1.02246 13.507 1.54196 14.0295C2.06146 14.5514 2.72057 14.783 3.53524 14.8933C4.3263 15 5.33753 15 6.61337 15H7.38638C8.66291 15 9.67414 15 10.4652 14.8933C11.2792 14.783 11.9383 14.5514 12.4585 14.0295C12.978 13.507 13.2086 12.8449 13.3183 12.0272C13.4246 11.2319 13.4246 10.2167 13.4246 8.93442V7.02C13.6648 6.71787 13.8361 6.3665 13.9264 5.99064C14.0168 5.61479 14.024 5.2236 13.9475 4.84465L13.5169 2.68326C13.4086 2.13488 13.3336 1.75884 13.1766 1.44349C13.0129 1.11541 12.7823 0.825608 12.4998 0.592905C12.2173 0.360202 11.8892 0.189807 11.5368 0.0927907C11.1972 1.03962e-08 10.8159 0 10.2589 0H3.74082ZM11.3535 8.02326C11.707 8.0239 12.057 7.9532 12.3828 7.81535V8.89535C12.3828 10.2258 12.3814 11.1712 12.2855 11.8884C12.1918 12.5895 12.0154 12.9942 11.7216 13.2893C11.4278 13.5844 11.025 13.7616 10.3256 13.8558C9.97102 13.8996 9.61455 13.9261 9.25742 13.9353V12.0126C9.25742 11.7056 9.25742 11.4405 9.23798 11.2242C9.21714 10.994 9.1713 10.7665 9.04768 10.5523C8.91067 10.3136 8.71354 10.1154 8.47608 9.97744C8.26287 9.85395 8.03645 9.80791 7.80726 9.78698C7.59196 9.76744 7.32804 9.76744 7.02245 9.76744H6.9773C6.67171 9.76744 6.40849 9.76744 6.19249 9.78698C5.9633 9.80791 5.73758 9.85395 5.52436 9.97744C5.28665 10.1153 5.08927 10.3135 4.95207 10.5523C4.82914 10.7665 4.7833 10.994 4.76247 11.2235C4.74302 11.4412 4.74302 11.7056 4.74302 12.0119V13.9353C4.38543 13.9261 4.02849 13.8996 3.67345 13.8558C2.97546 13.7616 2.57263 13.5844 2.27885 13.2893C1.98507 12.9942 1.80866 12.5895 1.7149 11.8877C1.61836 11.1712 1.61766 10.2258 1.61766 8.89535V7.81535C2.17272 8.05051 2.79103 8.08838 3.37042 7.9227C3.9498 7.75703 4.45557 7.39773 4.80414 6.90419C5.05613 7.25176 5.38653 7.53439 5.76827 7.72891C6.15 7.92343 6.57219 8.0243 7.00022 8.02326C7.42826 8.0243 7.85045 7.92343 8.23218 7.72891C8.61391 7.53439 8.94431 7.25176 9.19631 6.90419C9.44046 7.25054 9.76381 7.53296 10.1392 7.72769C10.5146 7.92243 10.931 8.02379 11.3535 8.02326ZM5.7848 13.9521C6.05428 13.953 6.34366 13.9535 6.65296 13.9535H7.34748C7.65678 13.9535 7.94616 13.953 8.21564 13.9521V12.0349C8.21564 11.6993 8.21494 11.4823 8.20036 11.3184C8.18647 11.1614 8.16216 11.1042 8.14549 11.0756C8.09982 10.9962 8.0342 10.9303 7.95519 10.8844C7.92672 10.8677 7.86977 10.844 7.7135 10.8293C7.47603 10.8147 7.23809 10.8096 7.00022 10.814C6.66616 10.814 6.45016 10.814 6.28694 10.8293C6.12998 10.8433 6.07373 10.8677 6.04525 10.8844C5.96599 10.9302 5.90012 10.9961 5.85426 11.0756C5.83828 11.1035 5.81397 11.1614 5.80008 11.3184C5.7855 11.4823 5.7848 11.6993 5.7848 12.0349V13.9521ZM4.68746 1.04651H3.81791C3.15534 1.04651 2.92545 1.0514 2.73932 1.10233C2.52803 1.16054 2.33128 1.26274 2.16186 1.40228C1.99243 1.54183 1.85411 1.7156 1.75587 1.91233C1.66906 2.08605 1.61975 2.3107 1.48987 2.96372L1.07454 5.04977C1.03028 5.2644 1.03007 5.48585 1.07392 5.70057C1.11777 5.9153 1.20476 6.11877 1.32958 6.29857C1.45439 6.47836 1.6144 6.63068 1.79983 6.74623C1.98525 6.86177 2.19219 6.93811 2.40799 6.97056C2.62379 7.00302 2.84391 6.99091 3.05489 6.93498C3.26587 6.87906 3.46328 6.78048 3.63503 6.64529C3.80679 6.5101 3.94929 6.34114 4.05382 6.14873C4.15835 5.95633 4.22271 5.74453 4.24296 5.52628L4.29088 5.04767L4.29366 5.01837L4.68746 1.04651ZM5.32711 5.14535L5.73549 1.04651H8.26495L8.67055 5.12233C8.69328 5.35554 8.66737 5.59095 8.59449 5.81354C8.5216 6.03614 8.40332 6.24103 8.24721 6.41515C8.0911 6.58926 7.90058 6.72879 7.6878 6.82481C7.47502 6.92084 7.24465 6.97127 7.01138 6.97287C6.77812 6.97448 6.54708 6.92723 6.33301 6.83414C6.11894 6.74106 5.92653 6.60417 5.76806 6.43222C5.60958 6.26027 5.48853 6.05702 5.41261 5.83545C5.33669 5.61388 5.30757 5.37885 5.32711 5.14535ZM11.2611 1.10233C11.075 1.0514 10.8451 1.04651 10.1825 1.04651H9.3116L9.75817 5.52558C9.77908 5.7432 9.84387 5.95427 9.94859 6.14592C10.0533 6.33758 10.1958 6.50582 10.3673 6.6404C10.5388 6.77497 10.7358 6.87307 10.9463 6.92871C11.1568 6.98435 11.3763 6.99637 11.5916 6.96404C11.8068 6.9317 12.0133 6.8557 12.1983 6.74064C12.3834 6.62559 12.5432 6.4739 12.6681 6.29481C12.7929 6.11572 12.8801 5.91298 12.9245 5.69893C12.9688 5.48488 12.9693 5.26401 12.9259 5.04977L12.5113 2.96372C12.3807 2.3107 12.3314 2.08605 12.2453 1.91233C12.147 1.71553 12.0085 1.54171 11.839 1.40216C11.6694 1.26261 11.4725 1.16045 11.2611 1.10233Z" fill="white"/>
</svg>
