<svg width="31" height="31" viewBox="0 0 31 31" fill="none" xmlns="http://www.w3.org/2000/svg">
<path d="M5.10023 17.7024C4.9846 18.0181 4.75041 18.2763 4.44745 18.4221C4.14448 18.5679 3.79661 18.5898 3.47775 18.4832C3.15889 18.3765 2.89416 18.1498 2.73983 17.8511C2.58549 17.5524 2.55371 17.2053 2.65123 16.8835C2.69855 16.7417 2.75199 16.5995 2.8114 16.4624C2.91474 16.217 3.06715 15.8786 3.2764 15.4782C3.70265 14.6773 4.36657 13.6104 5.34565 12.5435C7.3219 10.3864 10.5588 8.25 15.5007 8.25C20.4427 8.25 23.6796 10.3864 25.6558 12.5435C26.7099 13.7014 27.5653 15.0255 28.1875 16.4624L28.3063 16.7543C28.3141 16.775 28.3399 16.9093 28.3657 17.0385L28.4174 17.2917C28.4174 17.2917 28.6344 18.1519 27.5339 18.5162C27.2098 18.6244 26.856 18.5998 26.55 18.4478C26.244 18.2957 26.0107 18.0287 25.9012 17.705V17.6973L25.8857 17.6559L25.8057 17.4544C25.2982 16.2939 24.6045 15.224 23.7519 14.2873C22.1761 12.5745 19.6005 10.8333 15.5007 10.8333C11.401 10.8333 8.8254 12.5719 7.24957 14.2898C6.39725 15.2258 5.70353 16.2948 5.19582 17.4544L5.11832 17.6559L5.10023 17.7024ZM15.5007 13.4167C14.1305 13.4167 12.8163 13.961 11.8474 14.9299C10.8784 15.8989 10.3341 17.213 10.3341 18.5833C10.3341 19.9536 10.8784 21.2678 11.8474 22.2367C12.8163 23.2057 14.1305 23.75 15.5007 23.75C16.871 23.75 18.1852 23.2057 19.1541 22.2367C20.1231 21.2678 20.6674 19.9536 20.6674 18.5833C20.6674 17.213 20.1231 15.8989 19.1541 14.9299C18.1852 13.961 16.871 13.4167 15.5007 13.4167ZM12.9174 18.5833C12.9174 17.8982 13.1896 17.2411 13.674 16.7566C14.1585 16.2722 14.8156 16 15.5007 16C16.1859 16 16.843 16.2722 17.3274 16.7566C17.8119 17.2411 18.0841 17.8982 18.0841 18.5833C18.0841 19.2685 17.8119 19.9256 17.3274 20.41C16.843 20.8945 16.1859 21.1667 15.5007 21.1667C14.8156 21.1667 14.1585 20.8945 13.674 20.41C13.1896 19.9256 12.9174 19.2685 12.9174 18.5833Z" fill="#5D589A"/>
</svg>
