<svg width="33" height="29" viewBox="0 0 33 29" fill="none" xmlns="http://www.w3.org/2000/svg">
<path fill-rule="evenodd" clip-rule="evenodd" d="M7.10688 17.5648C7.17704 17.5865 7.24858 17.6034 7.32101 17.6153C7.77996 18.7027 8.23633 19.7911 8.69012 20.8807C9.50607 22.8412 10.3285 24.8604 10.5086 25.4411C10.7341 26.1555 10.9709 26.6415 11.2304 26.9743C11.3651 27.1439 11.5192 27.294 11.7009 27.4081C11.7963 27.4663 11.8974 27.5144 12.0026 27.5517C12.5217 27.7474 12.9954 27.6658 13.2922 27.5663C13.4665 27.5068 13.6323 27.4245 13.7854 27.3217L13.7935 27.3184L18.3777 24.4445L23.6741 28.5254C23.752 28.5852 23.8363 28.6358 23.9272 28.6771C24.5631 28.9544 25.1795 29.0522 25.7602 28.9739C26.3377 28.8924 26.7968 28.6494 27.1391 28.3737C27.5318 28.0549 27.845 27.6483 28.054 27.1863L28.0686 27.1504L28.0735 27.1374L28.0767 27.1309V27.1276L28.0783 27.126C28.1049 27.0553 28.1266 26.9828 28.1432 26.909L32.9773 2.40255C32.9906 2.32384 32.9982 2.24424 33 2.16442C33 1.44675 32.7307 0.763346 32.0997 0.350691C31.5579 -0.00324638 30.9561 -0.019557 30.5749 0.0098018C30.1661 0.0424227 29.7865 0.143548 29.5318 0.2251C29.3895 0.271304 29.2488 0.322441 29.11 0.378419L29.0922 0.386574L1.97919 11.0797L1.97595 11.0814C1.88401 11.1147 1.79361 11.1523 1.70505 11.1939C1.48997 11.2909 1.28371 11.4066 1.08862 11.5397C0.720387 11.7925 -0.128009 12.4873 0.0163643 13.6356C0.129916 14.549 0.752831 15.1117 1.13404 15.3824C1.34168 15.5308 1.53958 15.6369 1.68558 15.707C1.75047 15.7396 1.88997 15.7951 1.94999 15.8212L1.96622 15.8261L7.10688 17.5648ZM30.0412 2.63742H30.0379L29.9957 2.65536L2.8503 13.3632L2.80812 13.3795L2.7919 13.3844C2.7422 13.4037 2.69348 13.4255 2.64591 13.4496C2.69126 13.4752 2.73782 13.4986 2.78541 13.5198L7.88228 15.2454C7.97227 15.2789 8.05913 15.3204 8.14183 15.3694L24.9751 5.46076L24.9913 5.45261C25.0571 5.41326 25.1242 5.37627 25.1925 5.3417C25.3093 5.28135 25.4958 5.19327 25.7067 5.12803C25.8527 5.08236 26.2858 4.95351 26.753 5.10519C27.0012 5.18304 27.2224 5.32986 27.3912 5.5287C27.56 5.72754 27.6694 5.9703 27.7069 6.22899C27.7673 6.4553 27.7689 6.6934 27.7117 6.92055C27.5982 7.36909 27.2867 7.71813 27.0028 7.98562C26.7595 8.21397 23.6028 11.2738 20.4898 14.2945L16.2511 18.4048L15.4968 19.1387L25.0222 26.4817C25.1508 26.5357 25.2904 26.5581 25.4293 26.5469C25.4993 26.5373 25.5651 26.5079 25.6191 26.4621C25.6848 26.4062 25.7412 26.3401 25.7862 26.2664L25.7894 26.2648L30.4775 2.49552C30.3301 2.53202 30.1853 2.5789 30.0444 2.63579L30.0412 2.63742ZM16.316 22.8526L14.4148 21.3879L13.9541 24.332L16.316 22.8526ZM12.6709 18.4814L14.5608 16.6465L18.7995 12.533L20.3779 11.0031L9.80131 17.2288L9.85809 17.3625C10.5251 18.947 11.1848 20.5345 11.8371 22.1252L12.2962 19.1893C12.3381 18.9171 12.4702 18.6688 12.6709 18.4814Z" fill="#5D589A"/>
</svg>
