<svg width="35" height="31" viewBox="0 0 35 31" fill="none" xmlns="http://www.w3.org/2000/svg">
<path fill-rule="evenodd" clip-rule="evenodd" d="M7.5376 18.733C7.61201 18.7559 7.68788 18.7737 7.7647 18.7863C8.25147 19.9333 8.7355 21.0815 9.21679 22.2308C10.0822 24.2988 10.9545 26.4287 11.1455 27.0412C11.3846 27.7948 11.6358 28.3075 11.9111 28.6585C12.0539 28.8374 12.2173 28.9957 12.41 29.1161C12.5112 29.1775 12.6184 29.2282 12.73 29.2675C13.2806 29.474 13.783 29.388 14.0978 29.283C14.2827 29.2202 14.4585 29.1334 14.6208 29.025L14.6294 29.0215L19.4915 25.99L25.1089 30.2947C25.1915 30.3578 25.281 30.4111 25.3773 30.4547C26.0518 30.7472 26.7055 30.8504 27.3215 30.7678C27.934 30.6818 28.4209 30.4254 28.7839 30.1347C29.2004 29.7983 29.5326 29.3695 29.7542 28.8822L29.7697 28.8443L29.7749 28.8305L29.7783 28.8237V28.8202L29.78 28.8185C29.8083 28.7439 29.8313 28.6675 29.8489 28.5897L34.9759 2.73937C34.9901 2.65634 34.9981 2.57239 35 2.48818C35 1.73117 34.7144 1.01028 34.0451 0.574999C33.4705 0.201654 32.8322 0.184449 32.4279 0.215417C31.9943 0.249827 31.5917 0.356497 31.3216 0.442522C31.1707 0.491259 31.0215 0.5452 30.8743 0.604247L30.8553 0.61285L2.09914 11.8924L2.0957 11.8941C1.99819 11.9293 1.90232 11.9689 1.80838 12.0128C1.58027 12.1151 1.36151 12.2372 1.1546 12.3775C0.764047 12.6442 -0.135767 13.3771 0.0173561 14.5884C0.13779 15.5518 0.798457 16.1454 1.20277 16.431C1.42299 16.5876 1.63289 16.6994 1.78774 16.7734C1.85656 16.8078 2.00452 16.8663 2.06818 16.8938L2.08538 16.899L7.5376 18.733ZM31.8618 2.98712H31.8584L31.8137 3.00605L3.02305 14.301L2.97831 14.3182L2.96111 14.3234C2.90839 14.3438 2.85672 14.3668 2.80626 14.3922C2.85437 14.4192 2.90375 14.4439 2.95423 14.4662L8.35999 16.2865C8.45544 16.3218 8.54756 16.3656 8.63527 16.4172L26.4888 5.96528L26.506 5.95668C26.5757 5.91518 26.6468 5.87616 26.7193 5.83969C26.8432 5.77603 27.041 5.68312 27.2647 5.6143C27.4195 5.56613 27.8789 5.43021 28.3744 5.59022C28.6376 5.67233 28.8723 5.8272 29.0513 6.03694C29.2303 6.24669 29.3463 6.50277 29.3861 6.77563C29.4501 7.01435 29.4519 7.26551 29.3912 7.50512C29.2708 7.97825 28.9404 8.34644 28.6394 8.6286C28.3813 8.86946 25.0332 12.0971 21.7316 15.2834L17.236 19.6191L16.436 20.3933L26.5387 28.1389C26.6751 28.1959 26.8231 28.2195 26.9705 28.2077C27.0447 28.1976 27.1145 28.1665 27.1718 28.1183C27.2414 28.0593 27.3013 27.9896 27.349 27.9118L27.3524 27.9101L32.3246 2.83744C32.1682 2.87595 32.0147 2.92539 31.8653 2.9854L31.8618 2.98712ZM17.3048 24.3108L15.2884 22.7658L14.7998 25.8713L17.3048 24.3108ZM13.4389 19.6999L15.4432 17.7644L19.9389 13.4253L21.6129 11.8115L10.3953 18.3786L10.4555 18.5197C11.163 20.191 11.8627 21.8656 12.5545 23.5435L13.0414 20.4466C13.0859 20.1595 13.2259 19.8975 13.4389 19.6999Z" fill="white"/>
</svg>
