<svg width="27" height="27" viewBox="0 0 27 27" fill="none" xmlns="http://www.w3.org/2000/svg">
<path d="M18.5625 2.95312V5.0625H22.3594C22.695 5.0625 23.017 5.19584 23.2543 5.43319C23.4917 5.67054 23.625 5.99246 23.625 6.32812C23.625 6.66379 23.4917 6.98571 23.2543 7.22306C23.017 7.46041 22.695 7.59375 22.3594 7.59375H4.64062C4.30496 7.59375 3.98304 7.46041 3.74569 7.22306C3.50834 6.98571 3.375 6.66379 3.375 6.32812C3.375 5.99246 3.50834 5.67054 3.74569 5.43319C3.98304 5.19584 4.30496 5.0625 4.64062 5.0625H8.4375V2.95312C8.4375 1.323 9.7605 0 11.3906 0H15.6094C17.2395 0 18.5625 1.323 18.5625 2.95312ZM7.587 11.2641L8.70075 22.4016C8.71122 22.5057 8.76001 22.6022 8.83767 22.6724C8.91532 22.7426 9.01628 22.7814 9.12094 22.7812H17.8791C17.9837 22.7814 18.0847 22.7426 18.1623 22.6724C18.24 22.6022 18.2888 22.5057 18.2992 22.4016L19.413 11.2641C19.4548 10.9372 19.6226 10.6395 19.8805 10.4343C20.1384 10.2291 20.4662 10.1326 20.7941 10.1654C21.1221 10.1981 21.4243 10.3575 21.6366 10.6097C21.8488 10.8618 21.9544 11.1868 21.9307 11.5155L20.817 22.653C20.7442 23.3817 20.4033 24.0573 19.8604 24.5487C19.3175 25.0402 18.6114 25.3124 17.8791 25.3125H9.12094C8.38891 25.3124 7.68301 25.0404 7.14016 24.5493C6.59731 24.0583 6.2562 23.383 6.183 22.6547L5.06925 11.5172C5.04812 11.3496 5.06073 11.1795 5.10636 11.0169C5.15199 10.8543 5.2297 10.7024 5.33492 10.5703C5.44014 10.4382 5.57074 10.3285 5.71903 10.2476C5.86731 10.1668 6.03028 10.1164 6.19832 10.0995C6.36637 10.0826 6.5361 10.0996 6.69751 10.1493C6.85892 10.199 7.00875 10.2805 7.13816 10.389C7.26758 10.4976 7.37396 10.6309 7.45105 10.7812C7.52813 10.9315 7.57436 11.0956 7.587 11.2641ZM10.9688 2.95312V5.0625H16.0312V2.95312C16.0312 2.84124 15.9868 2.73393 15.9077 2.65481C15.8286 2.5757 15.7213 2.53125 15.6094 2.53125H11.3906C11.2787 2.53125 11.1714 2.5757 11.0923 2.65481C11.0132 2.73393 10.9688 2.84124 10.9688 2.95312Z" fill="#E07B3B"/>
</svg>
